<svg id="Layer_1" data-name="Layer 1" xmlns="http://www.w3.org/2000/svg" viewBox="0 0 850.39 850.39"><defs><style>.cls-1{fill:#099147;}.cls-2{fill:#fff;}.cls-3{fill:#df4427;}.cls-4{fill:#f1e919;}.cls-5{fill:#dbad27;}</style></defs><title>1 CAVARY CREST</title><path class="cls-1" d="M682.32,537.61a30.69,30.69,0,0,1-9.46,22.95c-14,14-31.18,23.28-49.3,30.05-37.19,13.88-74.81,26.58-112.33,39.55q-39.84,13.8-79.91,27a22.86,22.86,0,0,1-5.71,1.13h-1.26a10.79,10.79,0,0,1-2.89-.43Q343.84,635,266.36,611.58c-23.28-7.1-46.06-15.73-67.05-28.33a137.49,137.49,0,0,1-16.64-11.94c-9.47-7.88-13.7-18.07-13.61-30.58q.75-96.66,1-193.29.41-129.7.63-259.43c0-2.84.08-5.7.11-8.55.05-3.51,1.87-5.2,5.34-5.23,2.46,0,4.94-.06,7.4-.06h242.9v0h244c10.7,0,11,.22,11,10.69Q681.86,311.26,682.32,537.61Z"/><path class="cls-2" d="M650.8,516.56a27,27,0,0,1-8.3,20.13c-12.29,12.27-27.35,20.42-43.25,26.36-32.61,12.17-65.62,23.31-98.52,34.69q-35,12.1-70.1,23.69a19.7,19.7,0,0,1-5,1h-1.1a9.06,9.06,0,0,1-2.54-.37q-68.09-20.07-136-40.61c-20.42-6.23-40.4-13.79-58.81-24.85a120.11,120.11,0,0,1-14.59-10.47c-8.32-6.91-12-15.85-11.94-26.83q.66-84.78.85-169.54Q201.8,236,202,122.19c0-2.5.07-5,.09-7.5,0-3.08,1.64-4.56,4.69-4.59,2.16,0,4.33,0,6.49,0H426.33q107,0,214.06,0c9.39,0,9.63.18,9.66,9.37Q650.38,318,650.8,516.56Z"/><path class="cls-3" d="M466.2,188.29c4.33,3.71,4.37,4.73,1,7.49-3.83,3.11-7.64,6.23-11.55,9.23-3.53,2.7-4.51,2.35-6.7-2.59Z"/><path class="cls-3" d="M386.24,211.34c-1.67-.21-3.73.13-4.95-.72-4.37-3.07-8.46-6.54-12.66-9.87-1.85-1.46-3-3.05-1.06-5.31s3.37-1.13,5,.25c4,3.32,8,6.66,12.17,9.83,2.19,1.68,2.53,3.55,1.38,5.89Z"/><path class="cls-3" d="M376.92,241.59c-6.42,0-12.86.28-19.25-.12-3.21-.2-2.57-3-2.05-5.56,6.85,0,13.52-.16,20.18.19.87,0,1.6,2.65,2.4,4.07Z"/><path class="cls-3" d="M480.58,241.63c-6.17,0-12.57.25-18.95-.11-3.22-.18-2.7-2.86-2-5.66,6.79,0,13.57-.18,20.32.11C481.92,236.05,482.08,237.77,480.58,241.63Z"/><path class="cls-3" d="M419.45,170.92v23.53l-5.22.48V171.47Z"/><ellipse class="cls-4" cx="418.39" cy="234.47" rx="38.05" ry="37.44"/><path class="cls-1" d="M442.61,267.1m-41,2,194.77,166c-1.33-3.87-4.5-6.16-8.63-5.26-5.7,1.23-10.72-.53-15.87-2.34q-59.28-20.89-118.62-41.62c-3.86-1.34-5.79-3.37-5.78-7.59.08-32.52,0-65,.09-97.53,0-5.65,3.12-7.33,8.16-4.69,3.63,1.91,7.06,4.26,10.79,6,1.2.54,3.06-.39,4.61-.65-.51-1.47-.6-3.62-1.63-4.28a144.25,144.25,0,0,0-13.85-7.73c-4.67-2.3-8.46-1.21-11.79,2.63-1,1.15-2.29,2.53-3.66,2.83a119.41,119.41,0,0,1-12.62,1.94,2.36,2.36,0,0,1-.9-.12,52.07,52.07,0,0,1-14-.05c-5.81.4-12.74-1.68-15.33-4.86s-6.19-5.15-10.1-3.4c-6.11,2.74-11.86,6.26-18.17,9.68.85,1.94,1.43,3.29,2.39,5.49,4-2.23,7.45-4.44,11.12-6.07,2.67-1.19,6.06-2.79,8.4-2,1.5.5,2.27,5,2.33,7.69.25,11.62.11,23.24.11,34.86q0,29.79,0,59.58c0,3.56-.56,6.25-5,6.81q-57.33,7.38-114.6,15c-4.62.61-9.25,1.28-13.38,1.84-2.54,4.15-.38,5.63,2.39,7.09,3,1.6,7.1,2.76,8.68,5.35,3.89,6.38,2.85,13.41-.81,19.72-1,1.66-3.54,2.87-5.6,3.3-3.12.67-6.46.29-9.65.77-1.34.2-3.53,1.42-3.57,2.26-.06,1.36,1.16,2.94,2.17,4.15.7.86,2,1.26,3,1.84q21.17,11.86,42.32,23.73,60.92,34.33,121.79,68.73a8.69,8.69,0,0,0,8.3.64c11.44-4.64,23-9.08,34.49-13.54a36.89,36.89,0,0,1,4.69-1.12,70,70,0,0,0,0,7.18c.61,5.66,1,11.4,2.35,16.9.58,2.34,3.05,4.66,5.25,6.06,3.71,2.39,5.83,1.45,7.58-2.56.88-2,1.52-4.14,2.33-6.18,2.27-5.82,4.57-11.61,7.06-17.94,2.46,1.42,4.13,2.26,5.68,3.31,5.95,4,11.79,8.28,17.86,12.16,1.31.82,4,1.08,5,.29.91-.67,1.09-3.5.47-4.87-1.54-3.48-4.2-6.48-5.53-10-1.6-4.28-3.09-8.89-3.17-13.4-.07-4.27,1.4-8.63,6.32-10.7,19.51-8.2,38.94-16.64,58.49-24.77a10.33,10.33,0,0,1,6.66,0c6.35,2.08,10.09.89,12.07-5.45A61.39,61.39,0,0,0,596.37,435.08ZM398.8,388.13q0-50,.07-100.12c0-2.14.26-4.28.4-6.37h42.49c.16,2.09.51,4.38.51,6.67,0,43.8-.11,87.6,0,131.41,0,4.81-1.78,7.36-6.18,8.71-11.43,3.51-22.65,2.55-33.77-1.33-2.82-1-3.54-3.11-3.53-5.89C398.86,410.19,398.8,399.16,398.8,388.13Zm69,129.78c-13,5.15-25.91,10.42-39,15.24-2.06.75-5.26.07-7.32-1.07-20.2-11.16-40.28-22.56-60.38-33.91q-45.91-25.87-91.82-51.78c-1.48-.84-2.9-1.81-4.33-2.73.39-.65.49-1.05.67-1.1,8-1.7,11.69-6.12,13.14-16,.46-3.13.51-6.33.82-10.43,5.76,2.54,11,4.74,16.12,7.09q61.14,28,122.28,56.08a42.07,42.07,0,0,0,4.91,1.94c7,2.19,10.79,9.64,8.19,17.69l-88.4-42.83c-1,1.38-1.61,2.27-2.56,3.63a29.41,29.41,0,0,0,3.94,2.85q19,9.33,38.06,18.56,21.61,10.5,43.22,21c1.8.88,3.46,2.05,5.49,3.27l-2,5.1-71.57-36c-.87,1.67-1.47,2.84-2.37,4.58L425.64,515c-1.32,5.76-2.69,6.36-7.14,3.93q-44.34-24.15-88.71-48.27c-2-1.11-4.18-2-6.24-3-4,3.32-1.52,4.91,1.09,6.33,13.56,7.37,27.17,14.67,40.74,22,18,9.76,35.94,19.46,53.79,29.39a10.84,10.84,0,0,0,10,.67c12.64-4.81,25.36-9.41,38.07-14a18.83,18.83,0,0,1,3.71-.55C471.79,515.05,470.42,516.87,467.8,517.91Zm49.05-28.16a69.62,69.62,0,0,1-4,10.73c-5.08,10.56-7.59,21.09-.22,31.93l-1,.6c-6.69-4.5-13.38-9-20.91-14-4.05,10.45-7.76,20.06-11.46,29.66l-1.52.29c-1-2-2.79-4.06-2.81-6.11-.1-7.72-.2-15.52.8-23.15,1.33-10,4.56-19.87,2.64-30.1-.71-3.8-2.51-7.39-4.17-12.11,4.28-1.38,8.68-2.85,13.11-4.19,3.23-1,6.58-1.62,9.75-2.77,6.32-2.28,11.15.29,15.59,4.39A13.88,13.88,0,0,1,516.85,489.75Zm4.62,8.16-.89-2.14c16-7.86,33.22-13,49.65-20,.17.4.33.81.51,1.21Q546.11,487.46,521.47,497.91ZM579,460.37c-.33,4.47-3,7.57-7.58,9.27-14.34,5.29-28.53,11-42.8,16.46a46.16,46.16,0,0,1-5.4,1.28c-.35-8.71-3.91-15.36-12-20.68l23.37-7.09c-.42-1.61-.76-2.89-1.34-5l-70.47,20.29c-1.3,3.56,0,4.86,2.41,5.85,7.29,2.95,11.39,15.37,7.4,22.41A5.33,5.33,0,0,1,470,505.3c-11.85,4.39-23.74,8.69-35.61,13a6.65,6.65,0,0,1-1.72,0c1.66-6.4,4.32-12.6,4.59-18.9s-1.84-12.77-2.9-19.16l-1.48-.37a35,35,0,0,1,4.23-1.72q45.24-11.68,90.5-23.31c14.37-3.71,28.74-7.4,43-11.3,4-1.08,6.63.06,7.36,3.86A50.58,50.58,0,0,1,579,460.37Zm13.7,10.06c-1.23,4.78-2.5,5.23-6.9,3.38a9.59,9.59,0,0,0-6.27-.94c6.24-10.65,7.93-21.22,1.17-32.17-1.93-3.14-4.14-4.24-8-3.22-47.08,12.35-94.2,24.49-141.3,36.79-4.88,1.28-9.2,1.28-14-.95-33.45-15.61-67-30.94-100.55-46.34-12.56-5.77-25.17-11.45-37.74-17.19-2.21-1-4.36-2.17-6.55-3.26,0-.45.05-.89.07-1.33,2.62-.5,5.23-1.11,7.87-1.46q53.34-7,106.7-14c5.23-.69,6.17,0,6.22,5.09.08,8.54,0,17.07,0,25.6,0,3.48-1.27,5.33-4.87,6-10,1.92-19.89,4-29.76,6.34-1.76.41-3.17,2.3-4.73,3.5,1.27,1.37,2.29,3.34,3.86,4,11.35,4.86,22.76,9.6,34.28,14a18.56,18.56,0,0,0,8.52.83c5.66-.66,11.26-1.91,17.51-3-.11-1.85-.2-3.07-.33-5.06-4.7.76-9.06,1.17-13.25,2.2a22.87,22.87,0,0,1-15.82-1.82c-5.86-2.72-11.92-5-17.89-7.51-1.3-.56-2.54-1.26-3.74-1.85.19-.72.21-1.21.33-1.24,9.31-2,18.55-4.55,28-5.72,3.91-.48,8.18,2,12.3,3a51.79,51.79,0,0,0,36.91-3.75c1.38-.69,2.63-3.1,2.67-4.75.26-9.69.1-19.4.19-29.1a56.53,56.53,0,0,1,.9-6.79c8.54,2.88,16.19,5.38,23.77,8.05C506.48,410,540.69,422.17,575,434.1c3.44,1.2,7.43,1.25,11.14,1.14,3.4-.09,5.45,1,6.23,4.2C594.86,449.74,595.34,460.11,592.68,470.43ZM412.72,273c-.2,0-.4.06-.57.09"/><path class="cls-3" d="M441.4,274.27s1.4-1.19,2.45-2.29,5.48-7.06,14.44-1.3l14.22,8-2.63,5.17-13.78-7.62s-7.74-5-8.5,3.53Z"/><path class="cls-3" d="M399.21,273.4c-1.11-1-2-1.89-2.6-2.48a13.6,13.6,0,0,0-2-1.79,7.91,7.91,0,0,0-2.19-1.11,7.41,7.41,0,0,0-2.36-.37,7.28,7.28,0,0,0-1.79.29,11.63,11.63,0,0,0-2.52,1.08c-.78.41-1.93,1-3.42,1.66l-14.65,7.93,3.06,5.27L381,278.34a32.63,32.63,0,0,1,3.19-1.63,17.64,17.64,0,0,1,2.92-1.1,6.28,6.28,0,0,1,2.58-.4c2.23.4,3.2,4.1,3.32,4.58Z"/><path class="cls-3" d="M421,255.09v22l-5.24,0,0-21.46Z"/><path class="cls-3" d="M420.42,243.61s-5.63,1.45-9.44,8.53c0,0-4.53,10.16,5.63,13.79,0,0,.9,1.45,3.81,0a7.9,7.9,0,0,0,4.71-7.81S423,255,420.42,243.61Z"/><path class="cls-5" d="M419.06,250.74s-6.95,2.17-5,8.71c0,0,.49,3.63,3.39,4.35s4.6-4.11,4.6-4.11S419.24,254.61,419.06,250.74Z"/><path class="cls-1" d="M666.35,606.9l50.18,72.91s-272.47,244.4-591.1,0l62.17-75.38c32.64,24,85,55.41,155.19,70.17C505,708.71,635.34,627.43,666.35,606.9Z"/><path class="cls-1" d="M663.88,714.93l52.65-35.12c8,7.49,55.71,52.91,45,70.77-.73,1.2-2.52,3.62-7.68,5.48C722.68,767.32,671.21,721.56,663.88,714.93Z"/><path class="cls-2" d="M671,713.29l43.74-27.52c12.68,11.89,50.74,48.75,42.29,62.62-.58,1-2.07,2.92-6.58,4.32C723.05,761.17,677.62,719.46,671,713.29Z"/><path class="cls-1" d="M177.69,714.93l-50.6-36.72c-8.73,8.12-57.8,54.34-47,72.37.74,1.24,2.52,3.62,7.68,5.48C118.89,767.32,170.36,721.56,177.69,714.93Z"/><path class="cls-2" d="M170.56,713.29l-43.74-27.52c-9.57,8.43-51.46,46.05-42.87,61.38.51.92,2.12,3.39,7.4,5.14C120.11,761.87,164.38,719.34,170.56,713.29Z"/><path class="cls-1" d="M110.45,712.61l.74,7.59,12.1-3.77L117.9,728l8.43,4.07c-3.17,2.15-5.63,3.89-8.17,5.52-5.3,3.41-10.57,6.88-16,10.09-5.83,3.46-11.58.2-11.08-6.52a20.78,20.78,0,0,1,3.25-9.59c3.84-5.79,8.4-11.11,12.61-16.67a24.38,24.38,0,0,0,1.86-3.46Z"/><path class="cls-1" d="M137.7,719.18c2.2-4.26,6.12,3,8.3-2.27-1.34-.23-2.45-.38-3.53-.61-3.93-.8-5.58-3-5.48-7.13.08-3.63,1.92-5.75,5.45-6.3,4-.62,7.47,1.2,8.05,4.84a35.81,35.81,0,0,1,.06,10.74c-.52,3.5-4.06,5.69-7.46,5.38C140,723.54,137.88,722.06,137.7,719.18Zm5.07-7,2,.08.61-4.19-3.09-.12Z"/><path class="cls-1" d="M125.79,711.08l-5.09,1.06c.55-1.94.55-4.22,1.45-4.67,2.68-1.32,3.7-6.25,8.41-4V723l-4.77.25Z"/><path class="cls-1" d="M716.11,734.44l8.2-3.76-5-10.47,10.86,3.29c.31-2.62.56-4.68.94-7.91,2.07,2.2,3.55,3.54,4.75,5.09,3.59,4.63,7.38,9.14,10.45,14.1a18.12,18.12,0,0,1,2.4,8.91c.07,4.75-4.64,7.82-8.74,5.52C732.1,744.82,724.63,739.77,716.11,734.44Z"/><path class="cls-1" d="M693,715.53a35.42,35.42,0,0,0,3.91.65,19.83,19.83,0,0,0,3.16-.27l-.14-1.26c-.8-.09-1.59-.14-2.38-.27-3.08-.53-5.11-2.15-5.42-5.45s.82-5.81,4.08-6.9,6.09-.16,7.51,2.78a14.18,14.18,0,0,1-.19,13.32,5.6,5.6,0,0,1-7,2.57c-1.69-.57-2.94-2.43-4.39-3.71Zm4-9.6c.14,1.45.27,2.9.48,5.11C701.09,708.48,700.67,707.06,697,705.93Z"/><path class="cls-1" d="M708.83,715.38a23.18,23.18,0,0,0,3.84,1,10.51,10.51,0,0,0,2.91-.55c-.08-.39-.15-.79-.23-1.19-.79-.09-1.58-.18-2.37-.29-3.21-.45-5.05-2.31-5.36-5.52s.73-5.65,3.82-6.76a6.12,6.12,0,0,1,7.68,2.54c2.12,3.1,1.84,11.08-.41,14-1.93,2.53-4.69,2.79-7.27,1.93-1.48-.49-2.51-2.34-3.74-3.58Zm3.91-5.16,1.76-.17c1.59-1.73,1.5-3.17-.49-4.27l-1.67.22Z"/><path class="cls-2" d="M162.29,687.42l9.8-15.75a4.61,4.61,0,0,0,.64-1.69c2.51-11,5.17-22,8-32.93,3.26,2.14,4.9,3.19,8.2,5.26-2.58,8.42-5.37,18.15-7.55,23.51l.07,0c4.27-4.65,11.4-11.36,17.45-17.49,3.2,1.89,4.81,2.82,8,4.64-8.59,7.72-17.25,15.27-26.07,22.73a8.11,8.11,0,0,0-1.18,1.62l-9,15.16C167.3,690.51,165.62,689.49,162.29,687.42Z"/><path class="cls-2" d="M227.07,679.13,216.52,701.2c-4.33,9-11,11.21-20.5,6.3-9.1-4.72-10.75-11.3-6-19.85l12-21.54c4.88-8.77,11.84-10.07,19.29-6.23S231.42,670,227.07,679.13Zm-16.69-9.3c-4.94,9.31-7.41,14-12.34,23.27-2,3.84-1.36,6.53,1.71,8.12,3.31,1.71,5.66.74,7.73-3.37l11.8-23.48c1.87-3.72,1.66-6.39-1.52-8C214.94,664.88,212.46,665.91,210.38,669.83Z"/><path class="cls-2" d="M246.44,672.72l-16,36.49c-1.54,3.5-1.06,6.1,2.32,7.54s5.53-.33,6.89-3.61l15.23-36.81c3.19,1.32,4.78,2,8,3.21l-14.46,37c-3,7.7-9.07,11-18.67,6.91-9.14-3.9-11.56-10.06-7.82-18.17l16.64-36.05C241.71,670.63,243.28,671.34,246.44,672.72Z"/><path class="cls-2" d="M292.71,728.32l-.56,2C290.5,736,287,744,274.53,740c-10.95-3.47-11.23-10.12-8.61-17.67,3.48-10,5.21-15,8.68-24.94,2.66-7.63,8.07-11.35,16.35-8.73,9.89,3.13,10,9.82,8,16.79l-.65,2.26c-3.4-1-5.09-1.48-8.48-2.52l1-3.15c1-3.32.76-5.46-2.11-6.37s-4.32.61-5.43,4c-3.44,10.53-5.15,15.79-8.59,26.32-1.06,3.25-1.13,6,2.28,7.11,3.24,1,4.79-.92,5.93-4.65.34-1.12.51-1.68.86-2.8C287.33,726.77,289.12,727.3,292.71,728.32Z"/><path class="cls-2" d="M306.24,733.68c-2.19,5.22-3.3,7.83-5.53,13-3.75-1-5.62-1.47-9.36-2.51Q303.07,720.3,314,696.07c4.66,1.2,7,1.77,11.68,2.84q-1.24,26.63-1.64,53.24c-3.88-.8-5.82-1.22-9.69-2.11.3-5.68.46-8.51.82-14.19C311.61,735,309.82,734.58,306.24,733.68Zm9.6-5.3c.73-9,1.5-17.47,2.28-23.37l-.31-.08c-1.26,4.14-5.6,14.62-8.62,21.83C311.85,727.42,313.18,727.75,315.84,728.38Z"/><path class="cls-2" d="M328.53,753.05q5.09-25.68,10.16-51.37c3.86.76,5.79,1.12,9.67,1.8,1.29,12.36,2.51,24.74,3.74,37.11h.1c.56-6.43,1.67-13.71,3-22.22.83-5.37,1.24-8.06,2.07-13.44,3.09.48,4.64.7,7.74,1.13Q361.45,732,357.92,758c-4.18-.56-6.27-.87-10.44-1.53-1.72-12.74-3-25.56-4-38.37l-.09,0c-.71,6.31-2,13.3-3.66,22.56-1,5.64-1.52,8.46-2.53,14.1C333.73,754.07,332,753.74,328.53,753.05Z"/><path class="cls-2" d="M405.25,746.44c0,.81-.05,1.22-.09,2-.24,6-1.77,14.49-14.72,13.59-11.34-.79-13.14-7.18-12.37-15.14,1-10.51,1.54-15.77,2.57-26.28.78-8,5.12-12.94,13.7-12.34,10.24.71,11.93,7.18,11.63,14.43l-.1,2.34c-3.5-.14-5.25-.23-8.75-.45l.2-3.28c.21-3.48-.54-5.5-3.51-5.7s-4,1.61-4.3,5.18l-2.15,27.61c-.27,3.41.31,6.13,3.84,6.37,3.36.23,4.39-2,4.63-5.92.07-1.17.1-1.75.17-2.92C399.7,746.19,401.55,746.29,405.25,746.44Z"/><path class="cls-2" d="M438.51,723.84c.28,9.78.43,14.67.71,24.44.29,10-4.56,15-15,15-10,0-14.31-5.1-14-14.87l.75-24.64c.31-10,5.73-14.39,13.88-14.39C433.19,709.37,438.21,713.77,438.51,723.84Zm-18.61-.63-.3,26.34c-.05,4.35,1.74,6.43,5.1,6.43,3.63,0,5.23-1.93,5.18-6.54-.1-10.51-.15-15.77-.26-26.28,0-4.16-1.42-6.43-4.9-6.43C421.63,716.73,420,718.78,419.9,723.21Z"/><path class="cls-2" d="M452.48,709.29l2.46,39.76c.23,3.82,1.81,5.91,5.41,5.66s4.68-2.82,4.39-6.35q-1.62-19.86-3.26-39.71c3.38-.28,5.07-.43,8.44-.77q2,19.74,4,39.47c.83,8.22-3,13.92-13.22,14.65-9.73.69-14.59-3.68-15-12.6q-.84-19.83-1.69-39.67C447.42,709.59,449.11,709.5,452.48,709.29Z"/><path class="cls-2" d="M483.12,759.12q-3.06-26-6.11-52c3.9-.45,5.84-.7,9.73-1.25,5,11.37,10,22.78,15,34.17h.1c-1.45-6.29-2.63-13.57-4-22.06l-2.15-13.43c3.09-.5,4.63-.76,7.72-1.31q4.61,25.78,9.2,51.55c-4.15.75-6.24,1.1-10.41,1.75-5.55-11.6-10.69-23.41-15.58-35.3h-.08c1.26,6.23,2.18,13.27,3.44,22.6.77,5.68,1.16,8.51,1.93,14.19C488.37,758.48,486.62,758.7,483.12,759.12Z"/><path class="cls-2" d="M517.29,708.16c-3.52.73-5.29,1.08-8.82,1.74-.55-2.95-.83-4.42-1.38-7.37,10.31-1.93,15.44-3,25.64-5.59.72,2.91,1.09,4.37,1.81,7.28-3.52.87-5.28,1.29-8.81,2.1q5,21.87,10,43.75c-3.71.84-5.56,1.25-9.28,2Q521.86,730.13,517.29,708.16Z"/><path class="cls-2" d="M575.91,698.57c3.22,9.24,4.83,13.86,8,23.1,3.3,9.48.1,15.7-9.92,18.84-9.62,3-15.31-.52-18-9.93s-4-14.24-6.68-23.74,1.18-15.45,9-17.93S572.6,689.05,575.91,698.57Zm-18.13,5.07c3.05,10.08,4.58,15.12,7.63,25.21,1.26,4.16,3.6,5.6,6.84,4.58,3.5-1.1,4.46-3.43,3-7.81l-8.15-25c-1.29-4-3.3-5.7-6.66-4.65C557.5,696.92,556.5,699.39,557.78,703.64Z"/><path class="cls-2" d="M595.23,732.53l-17.91-49.21c3.74-1.36,5.6-2.06,9.3-3.51q11.34,14.84,22.57,29.75l.09,0c-2.86-5.78-5.69-12.59-9-20.54-2.08-5-3.12-7.54-5.19-12.57,2.93-1.22,4.4-1.84,7.32-3.11q10.43,24,20.86,48c-3.94,1.71-5.91,2.55-9.88,4.17-8.13-10-15.89-20.27-23.43-30.71l-.08,0c2.66,5.77,5.18,12.41,8.56,21.2,2.06,5.35,3.09,8,5.14,13.37C600.26,730.68,598.59,731.31,595.23,732.53Z"/><path class="cls-2" d="M626.74,661.85l18,35.52c1.73,3.41,4,4.69,7.33,3s3.3-4.51,1.63-7.64q-9.39-17.57-18.79-35.14c3.07-1.64,4.6-2.48,7.65-4.19L662,688c4,7.21,2.67,14-6.66,18.9-8.89,4.64-15.18,2.59-19.07-5.44q-8.64-17.88-17.29-35.74C622.09,664.2,623.65,663.43,626.74,661.85Z"/><path class="cls-2" d="M673.46,678.19l1.66,2.78c2,3.34,4.33,4.49,7.47,2.56s2.45-5,.64-7.92c-3-4.77-5.16-5.42-13-5.85s-12.22-1.25-16.09-8c-3.45-6-4.94-13,3.8-18.4,8.93-5.49,14-.72,17.12,4l1.53,2.34c-3,2-4.54,2.94-7.59,4.85l-1.37-2.18c-1.93-3.1-3.67-4.6-6.19-3.05s-1.94,3.85-.15,6.83c1.92,3.16,3.51,4.35,9.74,4.45,10.63.21,14.86,1.36,19.67,8.69,4.08,6.21,5.34,14-4.79,20.18s-15.64,2.12-19.07-3.86L665.29,683C668.57,681.11,670.2,680.15,673.46,678.19Z"/></svg>